<?xml version="1.0" encoding="UTF-8" standalone="no"?>
<!-- Created with Inkscape (http://www.inkscape.org/) -->

<svg
   xmlns:dc="http://purl.org/dc/elements/1.1/"
   xmlns:cc="http://creativecommons.org/ns#"
   xmlns:rdf="http://www.w3.org/1999/02/22-rdf-syntax-ns#"
   xmlns:svg="http://www.w3.org/2000/svg"
   xmlns="http://www.w3.org/2000/svg"
   xmlns:sodipodi="http://sodipodi.sourceforge.net/DTD/sodipodi-0.dtd"
   xmlns:inkscape="http://www.inkscape.org/namespaces/inkscape"
   width="624.4762"
   height="342.57724"
   id="svg3622"
   version="1.1"
   inkscape:version="0.48.2 r9819"
   sodipodi:docname="wicherts_msp.svg">
  <defs
     id="defs3624">
    <marker
       inkscape:stockid="Arrow1Mend"
       orient="auto"
       refY="0"
       refX="0"
       id="Arrow1Mend"
       style="overflow:visible">
      <path
         id="path3899"
         d="M 0,0 5,-5 -12.5,0 5,5 0,0 z"
         style="fill-rule:evenodd;stroke:#000000;stroke-width:1pt;marker-start:none"
         transform="matrix(-0.4,0,0,-0.4,-4,0)"
         inkscape:connector-curvature="0" />
    </marker>
    <marker
       inkscape:stockid="Arrow1Mstart"
       orient="auto"
       refY="0"
       refX="0"
       id="Arrow1Mstart"
       style="overflow:visible">
      <path
         id="path3896"
         d="M 0,0 5,-5 -12.5,0 5,5 0,0 z"
         style="fill-rule:evenodd;stroke:#000000;stroke-width:1pt;marker-start:none"
         transform="matrix(0.4,0,0,0.4,4,0)"
         inkscape:connector-curvature="0" />
    </marker>
    <marker
       inkscape:stockid="Arrow1Lstart"
       orient="auto"
       refY="0"
       refX="0"
       id="Arrow1Lstart"
       style="overflow:visible">
      <path
         id="path3890"
         d="M 0,0 5,-5 -12.5,0 5,5 0,0 z"
         style="fill-rule:evenodd;stroke:#000000;stroke-width:1pt;marker-start:none"
         transform="matrix(0.8,0,0,0.8,10,0)"
         inkscape:connector-curvature="0" />
    </marker>
    <marker
       inkscape:stockid="Arrow2Lend"
       orient="auto"
       refY="0"
       refX="0"
       id="marker11017-6"
       style="overflow:visible">
      <path
         sodipodi:nodetypes="cccc"
         id="path11019-3"
         style="font-size:12px;fill-rule:evenodd;stroke-width:0.625;stroke-linejoin:round"
         d="M 8.7185878,4.0337352 -2.2072895,0.01601326 8.7185884,-4.0017078 c -1.7454984,2.3720609 -1.7354408,5.6174519 -6e-7,8.035443 z"
         transform="matrix(-1.1,0,0,-1.1,5.5,0)"
         inkscape:connector-curvature="0" />
    </marker>
    <marker
       inkscape:stockid="Arrow2Lend"
       orient="auto"
       refY="0"
       refX="0"
       id="marker3343"
       style="overflow:visible">
      <path
         sodipodi:nodetypes="cccc"
         id="path3345"
         style="font-size:12px;fill-rule:evenodd;stroke-width:0.625;stroke-linejoin:round"
         d="M 8.7185878,4.0337352 -2.2072895,0.01601326 8.7185884,-4.0017078 c -1.7454984,2.3720609 -1.7354408,5.6174519 -6e-7,8.035443 z"
         transform="matrix(-1.1,0,0,-1.1,5.5,0)"
         inkscape:connector-curvature="0" />
    </marker>
    <marker
       inkscape:stockid="Arrow2Lend"
       orient="auto"
       refY="0"
       refX="0"
       id="marker3547"
       style="overflow:visible">
      <path
         sodipodi:nodetypes="cccc"
         id="path3549"
         style="font-size:12px;fill-rule:evenodd;stroke-width:0.625;stroke-linejoin:round"
         d="M 8.7185878,4.0337352 -2.2072895,0.01601326 8.7185884,-4.0017078 c -1.7454984,2.3720609 -1.7354408,5.6174519 -6e-7,8.035443 z"
         transform="matrix(-1.1,0,0,-1.1,5.5,0)"
         inkscape:connector-curvature="0" />
    </marker>
    <marker
       inkscape:stockid="Arrow2Lend"
       orient="auto"
       refY="0"
       refX="0"
       id="marker3551"
       style="overflow:visible">
      <path
         sodipodi:nodetypes="cccc"
         id="path3553"
         style="font-size:12px;fill-rule:evenodd;stroke-width:0.625;stroke-linejoin:round"
         d="M 8.7185878,4.0337352 -2.2072895,0.01601326 8.7185884,-4.0017078 c -1.7454984,2.3720609 -1.7354408,5.6174519 -6e-7,8.035443 z"
         transform="matrix(-1.1,0,0,-1.1,5.5,0)"
         inkscape:connector-curvature="0" />
    </marker>
    <marker
       inkscape:stockid="Arrow2Lend"
       orient="auto"
       refY="0"
       refX="0"
       id="marker3555"
       style="overflow:visible">
      <path
         sodipodi:nodetypes="cccc"
         id="path3557"
         style="font-size:12px;fill-rule:evenodd;stroke-width:0.625;stroke-linejoin:round"
         d="M 8.7185878,4.0337352 -2.2072895,0.01601326 8.7185884,-4.0017078 c -1.7454984,2.3720609 -1.7354408,5.6174519 -6e-7,8.035443 z"
         transform="matrix(-1.1,0,0,-1.1,5.5,0)"
         inkscape:connector-curvature="0" />
    </marker>
    <marker
       inkscape:stockid="Arrow2Lend"
       orient="auto"
       refY="0"
       refX="0"
       id="marker3559"
       style="overflow:visible">
      <path
         sodipodi:nodetypes="cccc"
         id="path3561"
         style="font-size:12px;fill-rule:evenodd;stroke-width:0.625;stroke-linejoin:round"
         d="M 8.7185878,4.0337352 -2.2072895,0.01601326 8.7185884,-4.0017078 c -1.7454984,2.3720609 -1.7354408,5.6174519 -6e-7,8.035443 z"
         transform="matrix(-1.1,0,0,-1.1,5.5,0)"
         inkscape:connector-curvature="0" />
    </marker>
    <marker
       inkscape:stockid="Arrow2Lend"
       orient="auto"
       refY="0"
       refX="0"
       id="marker3563"
       style="overflow:visible">
      <path
         sodipodi:nodetypes="cccc"
         id="path3565"
         style="font-size:12px;fill-rule:evenodd;stroke-width:0.625;stroke-linejoin:round"
         d="M 8.7185878,4.0337352 -2.2072895,0.01601326 8.7185884,-4.0017078 c -1.7454984,2.3720609 -1.7354408,5.6174519 -6e-7,8.035443 z"
         transform="matrix(-1.1,0,0,-1.1,5.5,0)"
         inkscape:connector-curvature="0" />
    </marker>
    <marker
       inkscape:stockid="Arrow2Lstart"
       orient="auto"
       refY="0"
       refX="0"
       id="Arrow2Lstart"
       style="overflow:visible">
      <path
         sodipodi:nodetypes="cccc"
         id="path7327"
         style="font-size:12px;fill-rule:evenodd;stroke-width:0.625;stroke-linejoin:round"
         d="M 8.7185878,4.0337352 -2.2072895,0.01601326 8.7185884,-4.0017078 c -1.7454984,2.3720609 -1.7354408,5.6174519 -6e-7,8.035443 z"
         transform="matrix(1.1,0,0,1.1,-5.5,0)"
         inkscape:connector-curvature="0" />
    </marker>
    <marker
       inkscape:stockid="Arrow2Lend"
       orient="auto"
       refY="0"
       refX="0"
       id="Arrow2Lend"
       style="overflow:visible">
      <path
         sodipodi:nodetypes="cccc"
         id="path7336"
         style="font-size:12px;fill-rule:evenodd;stroke-width:0.625;stroke-linejoin:round"
         d="M 8.7185878,4.0337352 -2.2072895,0.01601326 8.7185884,-4.0017078 c -1.7454984,2.3720609 -1.7354408,5.6174519 -6e-7,8.035443 z"
         transform="matrix(-1.1,0,0,-1.1,5.5,0)"
         inkscape:connector-curvature="0" />
    </marker>
    <marker
       inkscape:stockid="Arrow2Lend"
       orient="auto"
       refY="0"
       refX="0"
       id="marker3571"
       style="overflow:visible">
      <path
         sodipodi:nodetypes="cccc"
         id="path3573"
         style="font-size:12px;fill-rule:evenodd;stroke-width:0.625;stroke-linejoin:round"
         d="M 8.7185878,4.0337352 -2.2072895,0.01601326 8.7185884,-4.0017078 c -1.7454984,2.3720609 -1.7354408,5.6174519 -6e-7,8.035443 z"
         transform="matrix(-1.1,0,0,-1.1,5.5,0)"
         inkscape:connector-curvature="0" />
    </marker>
    <marker
       inkscape:stockid="Arrow2Lend"
       orient="auto"
       refY="0"
       refX="0"
       id="marker3575"
       style="overflow:visible">
      <path
         sodipodi:nodetypes="cccc"
         id="path3577"
         style="font-size:12px;fill-rule:evenodd;stroke-width:0.625;stroke-linejoin:round"
         d="M 8.7185878,4.0337352 -2.2072895,0.01601326 8.7185884,-4.0017078 c -1.7454984,2.3720609 -1.7354408,5.6174519 -6e-7,8.035443 z"
         transform="matrix(-1.1,0,0,-1.1,5.5,0)"
         inkscape:connector-curvature="0" />
    </marker>
    <marker
       inkscape:stockid="Arrow2Lend"
       orient="auto"
       refY="0"
       refX="0"
       id="marker3579"
       style="overflow:visible">
      <path
         sodipodi:nodetypes="cccc"
         id="path3581"
         style="font-size:12px;fill-rule:evenodd;stroke-width:0.625;stroke-linejoin:round"
         d="M 8.7185878,4.0337352 -2.2072895,0.01601326 8.7185884,-4.0017078 c -1.7454984,2.3720609 -1.7354408,5.6174519 -6e-7,8.035443 z"
         transform="matrix(-1.1,0,0,-1.1,5.5,0)"
         inkscape:connector-curvature="0" />
    </marker>
    <marker
       inkscape:stockid="Arrow1Mstart"
       orient="auto"
       refY="0"
       refX="0"
       id="Arrow1Mstart-8"
       style="overflow:visible">
      <path
         inkscape:connector-curvature="0"
         id="path3896-3"
         d="M 0,0 5,-5 -12.5,0 5,5 0,0 z"
         style="fill-rule:evenodd;stroke:#000000;stroke-width:1pt;marker-start:none"
         transform="matrix(0.4,0,0,0.4,4,0)" />
    </marker>
    <marker
       inkscape:stockid="Arrow1Mend"
       orient="auto"
       refY="0"
       refX="0"
       id="Arrow1Mend-1"
       style="overflow:visible">
      <path
         inkscape:connector-curvature="0"
         id="path3899-8"
         d="M 0,0 5,-5 -12.5,0 5,5 0,0 z"
         style="fill-rule:evenodd;stroke:#000000;stroke-width:1pt;marker-start:none"
         transform="matrix(-0.4,0,0,-0.4,-4,0)" />
    </marker>
    <marker
       inkscape:stockid="Arrow1Mstart"
       orient="auto"
       refY="0"
       refX="0"
       id="Arrow1Mstart-6"
       style="overflow:visible">
      <path
         inkscape:connector-curvature="0"
         id="path3896-4"
         d="M 0,0 5,-5 -12.5,0 5,5 0,0 z"
         style="fill-rule:evenodd;stroke:#000000;stroke-width:1pt;marker-start:none"
         transform="matrix(0.4,0,0,0.4,4,0)" />
    </marker>
    <marker
       inkscape:stockid="Arrow1Mend"
       orient="auto"
       refY="0"
       refX="0"
       id="Arrow1Mend-3"
       style="overflow:visible">
      <path
         inkscape:connector-curvature="0"
         id="path3899-3"
         d="M 0,0 5,-5 -12.5,0 5,5 0,0 z"
         style="fill-rule:evenodd;stroke:#000000;stroke-width:1pt;marker-start:none"
         transform="matrix(-0.4,0,0,-0.4,-4,0)" />
    </marker>
  </defs>
  <sodipodi:namedview
     id="base"
     pagecolor="#ffffff"
     bordercolor="#666666"
     borderopacity="1.0"
     inkscape:pageopacity="0.0"
     inkscape:pageshadow="2"
     inkscape:zoom="1.4"
     inkscape:cx="468.74575"
     inkscape:cy="180.79171"
     inkscape:document-units="px"
     inkscape:current-layer="layer1"
     showgrid="false"
     fit-margin-top="0.5"
     fit-margin-left="0.5"
     fit-margin-right="0.5"
     fit-margin-bottom="0.5"
     units="in"
     inkscape:window-width="1366"
     inkscape:window-height="688"
     inkscape:window-x="0"
     inkscape:window-y="25"
     inkscape:window-maximized="1" />
  <metadata
     id="metadata3627">
    <rdf:RDF>
      <cc:Work
         rdf:about="">
        <dc:format>image/svg+xml</dc:format>
        <dc:type
           rdf:resource="http://purl.org/dc/dcmitype/StillImage" />
        <dc:title />
      </cc:Work>
    </rdf:RDF>
  </metadata>
  <g
     inkscape:label="Layer 1"
     inkscape:groupmode="layer"
     id="layer1"
     transform="translate(5.3181088,-701.12646)">
    <a
       id="a11699-9-9"
       transform="matrix(0.76467323,0,0,0.74052356,1.1226029,812.8559)">
      <path
         transform="matrix(0.726,0,0,0.726,16.703275,-114.48508)"
         d="m 288.57143,263.79074 c 0,37.87095 -31.97967,68.57143 -71.42858,68.57143 -39.44891,0 -71.42857,-30.70048 -71.42857,-68.57143 0,-37.87095 31.97966,-68.57143 71.42857,-68.57143 39.44891,0 71.42858,30.70048 71.42858,68.57143 z"
         sodipodi:ry="68.571426"
         sodipodi:rx="71.428574"
         sodipodi:cy="263.79074"
         sodipodi:cx="217.14285"
         id="path1306-2-1"
         style="fill:none;stroke:#000000;stroke-width:1px;stroke-linecap:butt;stroke-linejoin:miter;stroke-opacity:1"
         sodipodi:type="arc" />
    </a>
    <rect
       style="fill:none"
       id="rect3502-7-1"
       width="153.54318"
       height="79.767296"
       x="302.26288"
       y="918.9364" />
    <rect
       style="fill:none"
       id="rect3504-2-8"
       width="141.42136"
       height="73.784752"
       x="338.62836"
       y="922.9248" />
    <rect
       style="fill:none"
       id="rect3506-0-9"
       width="99.738426"
       height="70.941048"
       x="326.27325"
       y="826.9762" />
    <rect
       style="fill:none;stroke:#000000;stroke-width:0.72129107;stroke-miterlimit:4;stroke-opacity:1;stroke-dasharray:none"
       id="rect6455-4-7"
       width="111.47236"
       height="50.672173"
       x="259.39691"
       y="766.53625" />
    <rect
       y="835.65881"
       x="260.51257"
       height="50.672173"
       width="111.47236"
       id="rect6459-53-8"
       style="fill:none;stroke:#000000;stroke-width:0.72129107;stroke-miterlimit:4;stroke-opacity:1;stroke-dasharray:none" />
    <rect
       style="fill:none;stroke:#000000;stroke-width:0.72129107;stroke-miterlimit:4;stroke-opacity:1;stroke-dasharray:none"
       id="rect6461-5-7"
       width="111.47236"
       height="50.672173"
       x="261.9646"
       y="901.57233" />
    <text
       xml:space="preserve"
       style="font-size:7.25999975px;font-style:normal;font-variant:normal;font-weight:normal;font-stretch:normal;text-align:start;line-height:125%;writing-mode:lr-tb;text-anchor:start;fill:#000000;fill-opacity:1;stroke:none;font-family:Arial Black"
       x="282.45758"
       y="795.7757"
       id="text6469-5-4"
       sodipodi:linespacing="125%"><tspan
         sodipodi:role="line"
         id="tspan6471-4-9"
         x="282.45758"
         y="795.7757"
         style="font-size:13.06799889px;font-style:normal;font-variant:normal;font-weight:normal;font-stretch:normal;text-align:start;line-height:125%;writing-mode:lr-tb;text-anchor:start;font-family:Arial Black">Numerical</tspan></text>
    <text
       xml:space="preserve"
       style="font-size:7.25999975px;font-style:normal;font-variant:normal;font-weight:normal;font-stretch:normal;text-align:start;line-height:125%;writing-mode:lr-tb;text-anchor:start;fill:#000000;fill-opacity:1;stroke:none;font-family:Arial Black"
       x="287.86548"
       y="865.01971"
       id="text6473-2-9"
       sodipodi:linespacing="125%"><tspan
         sodipodi:role="line"
         id="tspan6475-5-0"
         x="287.86548"
         y="865.01971"
         style="font-size:13.06799889px;font-style:normal;font-variant:normal;font-weight:normal;font-stretch:normal;text-align:start;line-height:125%;writing-mode:lr-tb;text-anchor:start;font-family:Arial Black">Abstract</tspan></text>
    <text
       xml:space="preserve"
       style="font-size:7.25999975px;font-style:normal;font-variant:normal;font-weight:normal;font-stretch:normal;text-align:start;line-height:125%;writing-mode:lr-tb;text-anchor:start;fill:#000000;fill-opacity:1;stroke:none;font-family:Arial Black"
       x="292.3266"
       y="930.81818"
       id="text6477-9-9"
       sodipodi:linespacing="125%"><tspan
         sodipodi:role="line"
         id="tspan6479-4-9"
         x="292.3266"
         y="930.81818"
         style="font-size:13.06799889px;font-style:normal;font-variant:normal;font-weight:normal;font-stretch:normal;text-align:start;line-height:125%;writing-mode:lr-tb;text-anchor:start;font-family:Arial Black">Verbal</tspan></text>
    <path
       style="fill:none;stroke:#000000;stroke-width:1.10000000000000009;stroke-linecap:butt;stroke-linejoin:miter;stroke-miterlimit:4;stroke-opacity:1;stroke-dasharray:13.19999999999999929, 13.19999999999999929;stroke-dashoffset:0;marker-end:url(#marker3579)"
       d="m 162.86793,842.30195 89.91499,-39.92367"
       id="path6495-0-0"
       sodipodi:nodetypes="cc"
       inkscape:connector-curvature="0" />
    <path
       style="fill:none;stroke:#000000;stroke-width:1.026;stroke-linecap:butt;stroke-linejoin:miter;stroke-opacity:1;marker-end:url(#Arrow2Lend);stroke-miterlimit:4;stroke-dasharray:none"
       d="m 173.23934,865.11909 80.58073,-3.89691"
       id="path7360-4-3"
       sodipodi:nodetypes="cc"
       inkscape:connector-curvature="0" />
    <path
       style="fill:none;stroke:#000000;stroke-width:1.026;stroke-linecap:butt;stroke-linejoin:miter;stroke-opacity:1;marker-end:url(#Arrow2Lend);stroke-miterlimit:4;stroke-dasharray:none"
       d="m 164.94221,896.23337 91.07797,22.92137"
       id="path9564-0-4"
       sodipodi:nodetypes="cc"
       inkscape:connector-curvature="0" />
    <path
       style="fill:none;stroke:#000000;stroke-width:0.72600001px;stroke-linecap:butt;stroke-linejoin:miter;stroke-opacity:1;marker-start:url(#Arrow2Lstart);marker-end:url(#Arrow2Lend)"
       d="m 101.75255,895.24891 c 0,0 -9.285419,17.42773 -31.253489,17.36304 -15.655543,-0.0461 -28.260941,-23.325 -30.196607,-39.39292 -2.706588,-22.46733 16.426577,-46.60622 33.512444,-46.43578 21.522826,0.21471 28.608152,13.40462 28.608152,13.40462"
       id="path20962-5-8"
       sodipodi:nodetypes="csssc"
       inkscape:connector-curvature="0" />
    <path
       sodipodi:type="arc"
       style="fill:none;stroke:#000000;stroke-width:1;stroke-linecap:butt;stroke-linejoin:miter;stroke-miterlimit:4;stroke-opacity:1;stroke-dasharray:8, 8;stroke-dashoffset:0"
       id="path4126-0-7"
       sodipodi:cx="432"
       sodipodi:cy="139.00002"
       sodipodi:rx="17"
       sodipodi:ry="19"
       d="m 449,139.00002 c 0,10.49341 -7.61116,19 -17,19 -9.38884,0 -17,-8.50659 -17,-19 0,-10.49341 7.61116,-19 17,-19 9.38884,0 17,8.50659 17,19 z"
       transform="matrix(1.9579389,0,0,1.5912736,-394.22555,565.06573)" />
    <path
       style="fill:none;stroke:#000000;stroke-width:0.90989828px;stroke-linecap:butt;stroke-linejoin:miter;stroke-opacity:1;marker-end:url(#marker3343)"
       d="m 414.95312,791.86887 c -13.44792,0.30324 -36.8271,1.39838 -36.8271,1.39838"
       id="path5110-3-0"
       inkscape:connector-curvature="0"
       sodipodi:nodetypes="cc" />
    <path
       style="fill:none;stroke:#000000;stroke-width:0.90989828px;stroke-linecap:butt;stroke-linejoin:miter;stroke-opacity:1;marker-end:url(#marker3343)"
       d="m 414.15722,855.06294 c -18.49869,-0.70691 -35.81695,0.38822 -35.81695,0.38822"
       id="path5110-5-2-0"
       inkscape:connector-curvature="0"
       sodipodi:nodetypes="cc" />
    <path
       style="fill:none;stroke:#000000;stroke-width:0.90989828px;stroke-linecap:butt;stroke-linejoin:miter;stroke-opacity:1;marker-end:url(#marker3343)"
       d="m 416.20177,923.53228 c -23.54942,-0.7069 -35.81693,-1.63207 -35.81693,-1.63207"
       id="path5110-6-90-8"
       inkscape:connector-curvature="0"
       sodipodi:nodetypes="cc" />
    <text
       xml:space="preserve"
       style="font-size:16px;font-style:normal;font-variant:normal;font-weight:normal;font-stretch:normal;text-align:start;line-height:125%;letter-spacing:0px;word-spacing:0px;writing-mode:lr-tb;text-anchor:start;fill:#000000;fill-opacity:1;stroke:none;font-family:Sans;-inkscape-font-specification:Sans"
       x="225.64301"
       y="855.96014"
       id="text13016-8-1"
       sodipodi:linespacing="125%"><tspan
         sodipodi:role="line"
         id="tspan13018-8-7"
         x="225.64301"
         y="855.96014">1</tspan></text>
    <text
       xml:space="preserve"
       style="font-size:40px;font-style:normal;font-weight:normal;line-height:125%;letter-spacing:0px;word-spacing:0px;fill:#ff0000;fill-opacity:1;stroke:none;font-family:Sans"
       x="432.00543"
       y="789.34344"
       id="text3773"
       sodipodi:linespacing="125%"><tspan
         sodipodi:role="line"
         id="tspan3777"
         x="432.00543"
         y="789.34344"
         style="font-size:16px;fill:#ff0000"> μ<tspan
   style="font-size:65.00091553000000033%;baseline-shift:sub;fill:#ff0000"
   id="tspan3789">num</tspan></tspan></text>
    <path
       sodipodi:type="arc"
       style="fill:none;stroke:#000000;stroke-width:0.99993718;stroke-linecap:butt;stroke-linejoin:miter;stroke-miterlimit:4;stroke-opacity:1;stroke-dasharray:none;stroke-dashoffset:0"
       id="path4126-0-7-3"
       sodipodi:cx="432"
       sodipodi:cy="139.00002"
       sodipodi:rx="17"
       sodipodi:ry="19"
       d="m 449,139.00002 c 0,10.49341 -7.61116,19 -17,19 -9.38884,0 -17,-8.50659 -17,-19 0,-10.49341 7.61116,-19 17,-19 9.38884,0 17,8.50659 17,19 z"
       transform="matrix(1.9579389,0,0,1.5912736,-395.64143,634.7047)" />
    <path
       sodipodi:type="arc"
       style="fill:none;stroke:#000000;stroke-width:0.99999994;stroke-linecap:butt;stroke-linejoin:miter;stroke-miterlimit:4;stroke-opacity:1;stroke-dasharray:none;stroke-dashoffset:0"
       id="path4126-0-7-8"
       sodipodi:cx="432"
       sodipodi:cy="139.00002"
       sodipodi:rx="17"
       sodipodi:ry="19"
       d="m 449,139.00002 c 0,10.49341 -7.61116,19 -17,19 -9.38884,0 -17,-8.50659 -17,-19 0,-10.49341 7.61116,-19 17,-19 9.38884,0 17,8.50659 17,19 z"
       transform="matrix(1.9579389,0,0,1.5912736,-395.64142,702.38492)" />
    <path
       style="fill:none;stroke:#000000;stroke-width:1.4;stroke-linecap:butt;stroke-linejoin:miter;stroke-miterlimit:4;stroke-opacity:1;stroke-dasharray:11.2,11.2;stroke-dashoffset:0;marker-start:url(#Arrow1Mstart);marker-end:url(#Arrow1Mend)"
       d="m 453.55849,202.51263 c 33.04048,-15.98075 31.6052,-13.65621 49.49748,-1e-5 8.80994,11.97044 11.6018,19.14278 -0.14404,31.0775 0,0 -26.60255,20.02756 -47.33312,3.26769"
       id="path3045"
       inkscape:connector-curvature="0"
       transform="translate(29.964725,563.47555)"
       sodipodi:nodetypes="cccc" />
    <path
       style="fill:none;stroke:#000000;stroke-width:1px;stroke-linecap:butt;stroke-linejoin:miter;stroke-opacity:1;marker-start:url(#Arrow1Mstart);marker-end:url(#Arrow1Mend)"
       d="m 481.52951,835.89046 c 33.04048,-15.98075 31.6052,-13.65621 49.49748,-10e-6 8.80994,11.97044 11.6018,19.14278 -0.14404,31.0775 0,0 -26.60255,20.02756 -47.33312,3.26769"
       id="path3045-9"
       inkscape:connector-curvature="0"
       sodipodi:nodetypes="cccc" />
    <path
       style="fill:none;stroke:#000000;stroke-width:1px;stroke-linecap:butt;stroke-linejoin:miter;stroke-opacity:1;marker-start:url(#Arrow1Mstart);marker-end:url(#Arrow1Mend)"
       d="m 481.52952,903.57068 c 33.04048,-15.98075 31.6052,-13.65621 49.49748,-1e-5 8.80994,11.97044 11.6018,19.14278 -0.14404,31.0775 0,0 -26.60255,20.02756 -47.33312,3.26769"
       id="path3045-3"
       inkscape:connector-curvature="0"
       sodipodi:nodetypes="cccc" />
    <text
       xml:space="preserve"
       style="font-size:13px;font-style:normal;font-weight:normal;line-height:125%;letter-spacing:0px;word-spacing:0px;fill:#000000;fill-opacity:1;stroke:none;font-family:Sans"
       x="97.644943"
       y="870.03387"
       id="text4822"
       sodipodi:linespacing="125%"><tspan
         sodipodi:role="line"
         id="tspan4824"
         x="97.644943"
         y="870.03387">Intelligence</tspan></text>
    <text
       xml:space="preserve"
       style="font-size:13px;font-style:normal;font-weight:normal;line-height:125%;letter-spacing:0px;word-spacing:0px;fill:#ff0000;fill-opacity:1;stroke:none;font-family:Sans"
       x="125.80738"
       y="888.21667"
       id="text4826"
       sodipodi:linespacing="125%"><tspan
         sodipodi:role="line"
         id="tspan4830"
         x="125.80738"
         y="888.21667"
         style="font-size:16px;fill:#ff0000"> η<tspan
   style="font-size:65.00091553000000033%;baseline-shift:sub;fill:#ff0000"
   id="tspan4836" /></tspan></text>
    <text
       xml:space="preserve"
       style="font-size:16px;font-style:normal;font-weight:normal;line-height:125%;letter-spacing:0px;word-spacing:0px;fill:#ff0000;fill-opacity:1;stroke:none;font-family:Sans"
       x="181.48761"
       y="805.38409"
       id="text4838"
       sodipodi:linespacing="125%"><tspan
         sodipodi:role="line"
         id="tspan4842"
         x="181.48761"
         y="805.38409"> λ<tspan
   style="font-size:65.00091553000000033%;baseline-shift:sub;fill:#ff0000"
   id="tspan4844">num</tspan></tspan></text>
    <text
       xml:space="preserve"
       style="font-size:16px;font-style:normal;font-weight:normal;line-height:125%;letter-spacing:0px;word-spacing:0px;fill:#ff0000;fill-opacity:1;stroke:none;font-family:Sans"
       x="536.05115"
       y="754.87646"
       id="text4854"
       sodipodi:linespacing="125%"><tspan
         sodipodi:role="line"
         id="tspan4858"
         x="536.05115"
         y="754.87646"> ψ<tspan
   style="font-size:65.00091553000000033%;baseline-shift:sub;fill:#ff0000"
   id="tspan4860">num</tspan></tspan></text>
  </g>
</svg>
